# xmcd
#
# Track frame offsets:
#       150
#       33022
#       49062
#       91820
#       103557
#       142152
#       156925
#
# Disc length: 2428 seconds
#
# Revision: 4
# Processed by: cddbd v1.5.2PL0 Copyright (c) Steve Scherf et al.
# Submitted via: FreeDbEdit v0.1
#
DISCID=52097a07
DTITLE=Weather Report - 8:30 [CD2]
DYEAR=1979
DGENRE=Jazz
TTITLE0=Birdland
TTITLE1=Thanks for the Memory
TTITLE2=Badia - Boogie Woogie Waltz Medley
TTITLE3=8:30
TTITLE4=Brown Street
TTITLE5=The Orphan
TTITLE6=Sightseeing
EXTD=YEAR: 1979
EXTT0=
EXTT1=
EXTT2=
EXTT3=
EXTT4=
EXTT5=
EXTT6=
PLAYORDER=
